HIERARCHY
ROOT Hips
{
	OFFSET 0.000000 0.000000 0.000000
	CHANNELS 6 Xposition Yposition Zposition Xrotation Yrotation Zrotation
	JOINT LeftUpLeg_virtual
	{
		OFFSET 0.000000 0.000000 0.000000
		CHANNELS 3 Xrotation Yrotation Zrotation
		JOINT LeftUpLeg
		{
			OFFSET 10.205400 -3.823500 0.155100
			CHANNELS 3 Xrotation Yrotation Zrotation
			JOINT LeftLeg
			{
				OFFSET 0.708757 -12.982077 0.567790
				CHANNELS 3 Xrotation Yrotation Zrotation
				JOINT LeftFoot
				{
					OFFSET -0.708756 -10.717838 -2.184338
					CHANNELS 3 Xrotation Yrotation Zrotation
					JOINT LeftToeBase
					{
						OFFSET 0.108149 -7.191104 7.560241
						CHANNELS 3 Xrotation Yrotation Zrotation
						JOINT LeftToe_End
						{
							OFFSET 0.070230 0.081724 4.490308
							CHANNELS 3 Xrotation Yrotation Zrotation
							End Site
							{
								OFFSET 0 0 0
							}
						}
					}
				}
			}
		}
	}
	JOINT RightUpLeg_virtual
	{
		OFFSET 0.000000 0.000000 0.000000
		CHANNELS 3 Xrotation Yrotation Zrotation
		JOINT RightUpLeg
		{
			OFFSET -10.205400 -3.823500 0.005500
			CHANNELS 3 Xrotation Yrotation Zrotation
			JOINT RightLeg
			{
				OFFSET -0.708756 -12.982134 0.610632
				CHANNELS 3 Xrotation Yrotation Zrotation
				JOINT RightFoot
				{
					OFFSET 0.708754 -10.717769 -1.945823
					CHANNELS 3 Xrotation Yrotation Zrotation
					JOINT RightToeBase
					{
						OFFSET -0.108140 -7.191069 7.372968
						CHANNELS 3 Xrotation Yrotation Zrotation
						JOINT RightToe_End
						{
							OFFSET -0.070227 0.081735 4.479403
							CHANNELS 3 Xrotation Yrotation Zrotation
							End Site
							{
								OFFSET 0 0 0
							}
						}
					}
				}
			}
		}
	}
	JOINT Spine_virtual
	{
		OFFSET 0.000000 0.000000 0.000000
		CHANNELS 3 Xrotation Yrotation Zrotation
		JOINT Spine
		{
			OFFSET 0.000000 6.876099 0.125700
			CHANNELS 3 Xrotation Yrotation Zrotation
			JOINT Spine1
			{
				OFFSET 0.000000 5.730043 0.104720
				CHANNELS 3 Xrotation Yrotation Zrotation
				JOINT Spine1_split
				{
					OFFSET 0.000000 5.730043 0.104720
					CHANNELS 3 Xrotation Yrotation Zrotation
					JOINT Spine2
					{
						OFFSET 0.000000 5.730043 0.104720
						CHANNELS 3 Xrotation Yrotation Zrotation
						JOINT Neck_virtual
						{
							OFFSET 0.000000 0.000000 0.000000
							CHANNELS 3 Xrotation Yrotation Zrotation
							JOINT Neck
							{
								OFFSET 0.000000 10.314075 0.188496
								CHANNELS 3 Xrotation Yrotation Zrotation
								JOINT Head
								{
									OFFSET 0.000000 7.643700 -2.377400
									CHANNELS 3 Xrotation Yrotation Zrotation
									JOINT HeadTop_End
									{
										OFFSET 0.000000 43.788605 -13.619600
										CHANNELS 3 Xrotation Yrotation Zrotation
										End Site
										{
											OFFSET 0 0 0
										}
									}
								}
							}
						}
						JOINT LeftShoulder_virtual
						{
							OFFSET 0.000000 0.000000 0.000000
							CHANNELS 3 Xrotation Yrotation Zrotation
							JOINT LeftShoulder
							{
								OFFSET 2.196100 4.412489 0.087492
								CHANNELS 3 Xrotation Yrotation Zrotation
								JOINT LeftShoulder_split
								{
									OFFSET 2.196100 4.412489 0.087492
									CHANNELS 3 Xrotation Yrotation Zrotation
									JOINT LeftArm
									{
										OFFSET 8.771219 -2.981674 -0.026999
										CHANNELS 3 Xrotation Yrotation Zrotation
										JOINT LeftForeArm
										{
											OFFSET 8.512804 0.000000 -0.000000
											CHANNELS 3 Xrotation Yrotation Zrotation
											JOINT LeftHand
											{
												OFFSET 18.484802 0.000000 -0.000000
												CHANNELS 3 Xrotation Yrotation Zrotation
												End Site
												{
													OFFSET 0 0 0
												}
											}
										}
									}
								}
							}
						}
						JOINT RightShoulder_virtual
						{
							OFFSET 0.000000 0.000000 0.000000
							CHANNELS 3 Xrotation Yrotation Zrotation
							JOINT RightShoulder
							{
								OFFSET -2.196100 4.412496 0.070690
								CHANNELS 3 Xrotation Yrotation Zrotation
								JOINT RightShoulder_split
								{
									OFFSET -2.196100 4.412496 0.070690
									CHANNELS 3 Xrotation Yrotation Zrotation
									JOINT RightArm
									{
										OFFSET -8.771282 -2.981682 -0.094208
										CHANNELS 3 Xrotation Yrotation Zrotation
										JOINT RightForeArm
										{
											OFFSET -8.494598 0.000000 0.000000
											CHANNELS 3 Xrotation Yrotation Zrotation
											JOINT RightHand
											{
												OFFSET -18.483803 0.000000 0.000001
												CHANNELS 3 Xrotation Yrotation Zrotation
												End Site
												{
													OFFSET 0 0 0
												}
											}
										}
									}
								}
							}
						}
					}
				}
			}
		}
	}
}
MOTION
Frames: 5
Frame Time: 0.03333333
1.676349 26.506939 0.135118 0.000000 0.000000 0.000000 -8.529463 -41.907049 13.620050 -18.878136 30.827939 -2.485257 59.855851 3.950986 6.555078 -32.341963 21.143643 -11.166309 -0.299388 -0.201960 -0.820371 0.000000 0.000000 0.000000 -8.753231 -42.370812 14.293189 -31.009687 8.954533 -41.509283 71.249835 5.066893 -10.371731 -34.460900 -10.455263 24.533973 -1.201260 1.855057 0.057494 0.000000 0.000000 0.000000 -4.199103 -44.104038 15.220190 1.533781 -4.085811 8.017096 -0.997566 -1.435468 5.196734 1.928781 -1.670277 0.610137 0.000000 0.000000 0.000000 -1.086559 -1.783441 4.691417 -10.449841 6.243229 7.124800 -16.795606 39.283058 -4.244924 0.000000 0.000000 0.000000 -1.497210 -1.685869 4.660552 -0.781040 1.388333 11.672395 0.204940 1.666673 1.060267 -35.615130 -30.308913 -44.515481 -6.959609 -81.242313 -4.576901 0.000000 0.000000 0.000000 -1.556764 -1.723915 4.691144 -0.621188 -6.327713 6.850768 1.765454 1.198223 0.920763 137.680863 78.123861 -101.915165 -0.878700 27.387551 0.830455 0.000000 0.000000 0.000000 
1.916249 26.738432 0.263603 0.000000 0.000000 0.000000 -7.249549 -40.885861 14.557840 -19.413633 29.769520 -4.032664 58.760432 3.726380 5.950098 -32.231758 20.818751 -9.652501 -0.135941 -0.202493 -0.797184 0.000000 0.000000 0.000000 -7.362135 -41.256009 15.289068 -32.216831 8.857988 -41.362499 70.415849 4.827120 -10.328826 -33.268619 -10.418508 24.908238 -2.031812 1.940327 0.067633 0.000000 0.000000 0.000000 -2.790310 -43.283080 16.178797 1.552484 -3.731012 7.865368 -0.933803 -1.225409 5.181950 1.885875 -1.269000 0.405457 0.000000 0.000000 0.000000 -0.991356 -1.542215 4.694195 -10.043001 6.385808 6.039387 -15.605406 38.165198 -5.397465 0.000000 0.000000 0.000000 -1.505167 -1.420309 4.636462 -0.851805 1.763701 11.240707 0.324096 1.509458 0.962123 -35.277650 -30.484111 -44.040715 -9.251604 -84.489180 -6.801920 0.000000 0.000000 0.000000 -1.394953 -1.490541 4.704280 -0.574444 -6.811108 7.423445 1.687068 1.500851 0.440521 138.870108 77.744218 -103.357298 -0.721621 26.383861 0.782827 0.000000 0.000000 0.000000 
2.155982 27.099173 0.362692 0.000000 0.000000 0.000000 -5.983193 -39.700229 15.403733 -19.782509 28.739537 -5.511130 56.833697 3.610516 5.342265 -31.605068 20.304679 -8.383088 -0.072074 -0.198702 -0.757188 0.000000 0.000000 0.000000 -6.005156 -40.037514 16.192920 -33.665876 8.409218 -40.831072 68.905913 4.602448 -10.298826 -31.795996 -9.874907 24.561439 -2.497304 2.030215 0.163977 0.000000 0.000000 0.000000 -1.466255 -42.241810 16.967566 1.619965 -3.391283 7.743607 -0.830143 -0.994769 5.189210 1.690569 -0.893170 0.267565 0.000000 0.000000 0.000000 -0.806939 -1.283023 4.703188 -9.826352 6.410800 4.987585 -14.725184 36.608906 -6.298073 0.000000 0.000000 0.000000 -1.390599 -1.130990 4.646736 -0.914099 2.099575 10.655231 0.432188 1.520453 0.815631 -34.005299 -30.097905 -43.396908 -19.116354 -87.228366 -16.582303 0.000000 0.000000 0.000000 -1.154936 -1.238931 4.708633 -0.481125 -7.188237 7.601942 1.618242 1.888086 0.159300 139.408765 77.084238 -104.612659 -0.656720 25.009219 0.680994 0.000000 0.000000 0.000000 
2.382321 27.546333 0.414886 0.000000 0.000000 0.000000 -4.815115 -38.455362 16.067458 -20.079498 27.825986 -6.744273 54.382513 3.655774 4.755077 -30.612303 19.644710 -7.293647 -0.033998 -0.187601 -0.698571 0.000000 0.000000 0.000000 -4.779276 -38.820142 16.919956 -35.419428 7.603567 -40.057581 66.949002 4.412195 -10.196088 -29.958647 -8.858071 23.542315 -2.513805 2.144842 0.292624 0.000000 0.000000 0.000000 -0.289753 -41.095462 17.524088 1.781947 -3.026361 7.629299 -0.686407 -0.737767 5.181302 1.528613 -0.703673 0.249872 0.000000 0.000000 0.000000 -0.525063 -0.990103 4.671069 -9.771404 6.324022 4.152850 -14.146847 34.858273 -6.985150 0.000000 0.000000 0.000000 -1.149619 -0.827323 4.654957 -0.972099 2.345113 10.038350 0.615681 1.669269 0.728304 -32.301368 -29.378160 -42.857607 -59.032772 -88.763458 -56.434438 0.000000 0.000000 0.000000 -0.852176 -0.962685 4.675679 -0.360543 -7.419295 7.463150 1.556796 2.295538 0.083444 139.836731 76.096299 -106.130232 -0.675628 23.264579 0.539073 0.000000 0.000000 0.000000 
2.575282 28.011976 0.435883 0.000000 0.000000 0.000000 -3.785986 -37.211875 16.508065 -20.372909 27.064037 -7.621979 51.854967 3.809366 4.266575 -29.520071 18.870354 -6.336153 0.064378 -0.168878 -0.646496 0.000000 0.000000 0.000000 -3.768453 -37.595950 17.388917 -37.389265 6.512114 -39.215480 64.937388 4.426635 -10.086017 -27.660101 -7.464589 22.353558 -2.507050 2.267788 0.357002 0.000000 0.000000 0.000000 0.600300 -39.894462 17.809274 2.062286 -2.605431 7.492601 -0.490095 -0.455743 5.129037 1.430833 -0.692742 0.395910 0.000000 0.000000 0.000000 -0.156335 -0.678117 4.585826 -9.801957 6.145580 3.698786 -13.764680 33.113843 -7.578551 0.000000 0.000000 0.000000 -0.818044 -0.515307 4.637194 -1.033288 2.409955 9.463365 0.762961 1.900631 0.633597 -30.823998 -28.536356 -42.663790 -105.832661 -88.765207 -103.256280 0.000000 0.000000 0.000000 -0.508135 -0.667941 4.593587 -0.247154 -7.525002 7.120866 1.618969 2.812795 0.179721 140.446967 74.839790 -108.081795 -0.768324 21.326549 0.385810 0.000000 0.000000 0.000000 
